<?xml version="1.0" encoding="UTF-8" standalone="no"?>
<!-- Created with Inkscape (http://www.inkscape.org/) -->

<svg
   width="210mm"
   height="297mm"
   viewBox="0 0 210 297"
   version="1.1"
   id="svg1"
   inkscape:version="1.3 (0e150ed6c4, 2023-07-21)"
   sodipodi:docname="inomeado.svg"
   xmlns:inkscape="http://www.inkscape.org/namespaces/inkscape"
   xmlns:sodipodi="http://sodipodi.sourceforge.net/DTD/sodipodi-0.dtd"
   xmlns:xlink="http://www.w3.org/1999/xlink"
   xmlns="http://www.w3.org/2000/svg"
   xmlns:svg="http://www.w3.org/2000/svg">
  <sodipodi:namedview
     id="namedview1"
     pagecolor="#ffffff"
     bordercolor="#000000"
     borderopacity="0.25"
     inkscape:showpageshadow="2"
     inkscape:pageopacity="0.0"
     inkscape:pagecheckerboard="0"
     inkscape:deskcolor="#d1d1d1"
     inkscape:document-units="mm"
     inkscape:zoom="0.72426347"
     inkscape:cx="396.26464"
     inkscape:cy="561.25984"
     inkscape:window-width="1920"
     inkscape:window-height="1009"
     inkscape:window-x="-8"
     inkscape:window-y="-8"
     inkscape:window-maximized="1"
     inkscape:current-layer="layer1" />
  <defs
     id="defs1">
    <rect
       x="285.8076"
       y="724.87434"
       width="41.421391"
       height="53.847808"
       id="rect10" />
    <rect
       x="176.73127"
       y="720.7322"
       width="19.329982"
       height="38.659965"
       id="rect9" />
  </defs>
  <g
     inkscape:label="Camada 1"
     inkscape:groupmode="layer"
     id="layer1">
    <path
       style="fill:#ffff00;fill-opacity:0.319355;stroke-width:0.264583"
       d="m 63.564576,142.83764 c 0.365313,0.36531 0,0 0,0 z"
       id="path1" />
    <path
       style="fill:#ffff00;fill-opacity:0.319355;stroke-width:0.264583"
       d="m 21.188192,137.35793 c 2.120051,-2.2401 2.333235,-5.39709 3.653136,-8.0369"
       id="path2" />
    <path
       style="fill:#ffff00;fill-opacity:0.319355;stroke-width:0.264583"
       d="m 26.302583,130.05166 17.90037,-1.82657"
       id="path3" />
    <path
       style="fill:#ffff00;fill-opacity:0.319355;stroke-width:0.264583"
       d="m 53.701105,135.53136 6.210335,9.49816"
       id="path4" />
    <path
       style="fill:#ffff00;fill-opacity:0.319355;stroke-width:0.264583"
       d="m 77.811806,138.45387 c -2.118648,4.75665 -1.826567,10.96463 -1.826567,16.0738"
       id="path5" />
    <path
       style="fill:#ffff00;fill-opacity:0.319355;stroke-width:0.264583"
       d="m 93.520293,149.7786 h 0.365316"
       id="path6" />
    <path
       style="fill:#ffff00;fill-opacity:0.319355;stroke-width:0.264583"
       d="M 47.125461,69.774908 131.87823,17.169742"
       id="path7" />
    <path
       style="fill:none;fill-opacity:0.319355;stroke-width:0.264583;stroke:#000000"
       d="m 29.590404,138.45387 c -0.41153,-4.47486 0.622295,-9.62664 4.749078,-11.69003 0.15403,-0.077 0.198247,-0.32355 0.365315,-0.36532 1.518211,-0.37955 11.857318,2.17156 13.881918,2.5572 3.747775,0.71386 7.549692,1.65259 11.324725,2.19188 4.102298,0.58604 8.294168,0.36531 12.420663,0.36531 3.624794,0 8.169746,0.90498 11.324722,-1.46125 4.802484,-3.60186 3.653137,-11.71113 3.653137,-16.80443 0,-0.97417 -0.30806,-1.99833 0,-2.92251 1.011999,-3.03599 4.533468,-5.05279 7.306272,-5.84502 6.686136,-1.91032 6.091526,-1.46125 12.785976,-1.46125 2.31365,0 4.63576,-0.19759 6.94096,0 13.3096,1.14082 2.97505,1.09594 6.57565,1.09594 1.0626,0 4.50847,0.60416 5.11439,-0.36531 1.18653,-1.89845 1.75353,-4.12082 2.55719,-6.210335 2.455,-6.382999 4.79806,-13.139547 8.40222,-18.99631 3.4373,-5.585614 7.68357,-10.871475 13.15129,-14.612546 0.89889,-0.615029 1.98857,-0.90089 2.92251,-1.461254 0.89824,-0.538943 1.67773,-1.257504 2.5572,-1.82657 1.94146,-1.256241 9.96223,-5.831213 10.59409,-6.210331 10.23531,-6.141183 4.38851,-3.10754 10.5941,-6.210332"
       id="path8" />
    <text
       xml:space="preserve"
       style="font-size:20.0562px;white-space:pre;fill:none;fill-opacity:0.319355;stroke:#000000;stroke-width:0.264583"
       id="text8"><textPath
         xlink:href="#path8"
         id="textPath11"><tspan
           id="tspan8"
           style="stroke-width:0.264583">duruduh nunes linda dms </tspan><tspan
           style="stroke-width:0.264583"
           id="tspan9" /></textPath></text>
    <text
       xml:space="preserve"
       transform="scale(0.26458333)"
       id="text9"
       style="fill:none;fill-opacity:0.31935483;stroke:#000000;white-space:pre;shape-inside:url(#rect9)" />
    <text
       xml:space="preserve"
       transform="scale(0.26458333)"
       id="text10"
       style="fill:none;fill-opacity:0.31935483;stroke:#000000;white-space:pre;shape-inside:url(#rect10)" />
    <path
       style="fill:none;fill-opacity:0.319355;stroke:#000000;stroke-width:0.264583"
       d="m 42.741696,180.09963 c 2.070111,-4.14022 -0.365313,0 1.461257,-1.82657 0.385072,-0.38508 0.428548,-1.00814 0.730625,-1.46125 0.979636,-1.46946 2.155063,-3.15378 3.653137,-3.65314 2.646119,-0.88204 -0.575956,0.10532 1.095941,-0.73063 0.696823,-0.34841 2.169769,0.15055 2.922508,0 0.267002,-0.0534 0.466471,-0.29927 0.730628,-0.36531 2.334141,-0.58354 4.187304,0.59424 6.210332,1.46125 1.737802,0.74477 4.523237,1.37489 5.479706,3.28783 0.341098,0.68219 0,5.69561 0,6.94096 0,1.335 -0.517305,5.63169 -1.461254,6.57564 -0.192537,0.19254 -0.538091,0.17278 -0.730628,0.36532 -0.192538,0.19253 -0.172776,0.53808 -0.365313,0.73062 -0.796645,0.79665 -2.008979,1.17405 -2.922511,1.82657 -0.913558,0.65254 -1.594509,1.61427 -2.557195,2.19188 -0.330197,0.19812 -0.765741,0.1672 -1.095941,0.36532 -0.295339,0.1772 -0.435288,0.55342 -0.730626,0.73062 -0.776753,0.46605 -1.789451,0.54755 -2.557198,1.09594 -0.773911,0.5528 -1.289621,1.52582 -2.19188,1.82657 -0.231044,0.077 -0.512797,-0.10891 -0.730628,0 -1.580571,0.79029 -2.87795,3.08034 -4.018449,4.38377 -0.71769,0.82021 -2.11087,1.80669 -2.557196,2.92251 -0.09045,0.22612 0.07702,0.49958 0,0.73062 2.066359,4.0056 -0.823653,0.91668 -1.095941,1.46126 -0.108915,0.21783 0.07702,0.49958 0,0.73062 -0.168465,0.5054 -2.146268,2.2375 -1.461254,2.92251 0.443077,0.44308 1.007782,-0.46615 1.095939,-0.73062 0.33071,-0.99214 -0.0269,-4.63368 -0.365313,-5.47971 -0.188468,-0.47117 -1.687388,-2.31363 -1.826567,-2.55719 -0.19105,-0.33434 -0.124762,-0.79525 -0.365315,-1.09594 -0.274273,-0.34285 -0.806823,-0.40021 -1.095942,-0.73063 -0.578233,-0.66084 -0.889791,-1.52518 -1.461254,-2.19188 -0.177202,-0.20674 -0.512797,-0.20195 -0.730625,-0.36532 -1.870798,-1.40309 -3.799512,-2.48427 -5.845019,-3.65313 -4.644946,-2.65426 1.773774,0.93897 -1.82657,-1.46126 -0.453115,-0.30208 -0.999453,-0.442 -1.461254,-0.73063 -1.974852,-1.23428 -3.67563,-2.9405 -5.479704,-4.38376 -0.653422,-0.52274 -2.931206,-1.11333 -3.287823,-1.82657 -0.163374,-0.32675 0.0886,-0.74153 0,-1.09594 -0.333492,-1.33397 -1.023938,-2.7065 -1.461255,-4.01845 -0.79151,-2.37453 -0.06645,-0.5316 -0.365313,-2.92251 -0.19476,-1.55807 -0.730628,-2.78016 -0.730628,-4.38376 0,-1.61201 -0.152371,-3.19603 0.365314,-4.74908 0.729826,-2.18948 -0.09347,0.91756 1.095941,-1.46125 0.108915,-0.21783 -0.146126,-0.5358 0,-0.73063 0.487422,-0.6499 2.146921,-1.30614 2.922509,-1.46126 0.477626,-0.0955 0.983628,0.0955 1.461255,0 1.782201,-0.35644 3.162905,-1.58381 5.114391,-1.09594 1.555861,0.38897 1.030031,0.29941 1.826567,1.09594 0.400397,0.4004 1.749515,0.0704 2.191883,0.36532 1.387951,0.9253 0.518326,0.62447 2.191882,1.46125 0.857747,0.42888 1.64864,2.5635 2.191882,3.28783 0.26343,0.35124 0.852398,0.36531 1.095942,0.73062 0.135091,0.20264 -0.108916,0.5128 0,0.73063 0.05446,0.10891 0.279206,-0.0861 0.365312,0 0.08348,0.0835 1.054209,1.33606 1.095942,1.46125 0.07702,0.23105 -0.07701,0.49959 0,0.73063 0.05446,0.16337 0.288298,0.21128 0.365313,0.36531 0.187309,0.37462 0.178006,1.08664 0.365312,1.46126 0.296283,0.59256 0.785355,1.2054 1.095942,1.82657 0.193987,0.38797 0.03967,1.13561 0.365315,1.46125 0.444945,0.44495 0.816187,0.17112 1.095941,0.73063 0.355706,0.71141 0.504997,2.62704 1.095939,2.92251 0.497993,0.249 1.23916,-0.94788 1.461256,-1.09594 0.290484,-0.19366 0.92033,-0.2038 1.095942,-0.73063 0.115522,-0.34657 -0.163375,-0.76919 0,-1.09594 0.451564,-0.90313 0.365313,-1.84047 0.365313,-2.92251"
       id="path11" />
    <text
       xml:space="preserve"
       style="font-size:3.175px;white-space:pre;inline-size:22.1918;fill:none;fill-opacity:0.319355;stroke:#000000;stroke-width:0.264583"
       x="135.89668"
       y="181.56088"
       id="text12"><tspan
         x="135.89668"
         y="181.56088"
         id="tspan1">luquinha</tspan></text>
    <path
       style="fill:none;fill-opacity:0.319355;stroke:#000000;stroke-width:0.264583"
       d="m 96.442804,219.18819 c 12.542436,0 25.084866,0 37.627306,0 2.73469,0 5.681,-0.25916 8.40221,0 4.04601,0.38533 8.04948,1.13984 12.05535,1.82657 3.67192,0.62947 7.29402,1.52545 10.95941,2.19188 0.84717,0.15403 1.7028,0.25851 2.5572,0.36531 0.12083,0.0151 0.36531,-0.12177 0.36531,0 0,0.17221 -0.19416,0.3463 -0.36531,0.36532 -3.99004,0.44333 -7.57007,-0.18492 -11.69004,0.73062 -2.36798,0.52622 -4.61437,1.52715 -6.94096,2.19189 -1.56305,0.44658 -2.94009,0.65921 -4.38376,1.46125 -2.09707,1.16504 -3.77386,2.81028 -5.84502,4.01845 -2.50555,1.46157 -4.92594,2.68353 -7.30627,4.38377 -4.75795,3.39853 -9.43835,6.89955 -14.24724,10.22878 -0.38787,0.26853 -3.09151,1.99557 -3.65313,2.55719 -0.8126,0.8126 -1.09594,2.30546 -1.09594,1.46126 0,-0.27229 0.26419,-0.47782 0.36531,-0.73063 0.3864,-0.966 0.78049,-1.93107 1.09594,-2.92251 0.53759,-1.68955 0.83007,-3.45753 1.46126,-5.11439 0.3495,-0.91744 1.07452,-1.65482 1.46125,-2.5572 0.34921,-0.81483 0.41239,-1.72977 0.73063,-2.55719 0.29324,-0.76242 0.83762,-1.41694 1.09594,-2.19188 0.23423,-0.7027 0.24354,-1.46126 0.36531,-2.19189 0.24354,-0.85239 0.42767,-1.72406 0.73063,-2.55719 1.12112,-3.08307 2.48429,-5.9187 3.28782,-9.13284 0.41767,-1.67069 0.28691,-3.45044 0.73063,-5.11439 0.23895,-0.89607 0.82321,-1.67083 1.09594,-2.5572 0.21783,-0.70795 0.19876,-1.47014 0.36532,-2.19188 0.28586,-1.23877 0.88693,-2.39911 1.09594,-3.65314 0.10009,-0.60057 -0.11941,-1.22953 0,-1.82657 0.15103,-0.75519 0.57958,-1.43669 0.73062,-2.19188 0.1521,-0.76049 -0.43453,-2.62641 0.36532,-1.82657 0.25831,0.25832 0,0.73063 0,1.09595 0,0.97417 -0.0463,1.94944 0,2.9225 0.0755,1.58591 0.0933,3.18486 0.36531,4.74908 2.44666,14.06826 6.58042,26.84087 12.42066,39.81919 1.08854,2.41897 2.12545,4.98152 3.28783,7.30627 0.0545,0.10892 -0.12177,0.36532 0,0.36532 0.12177,0 0.0385,-0.2498 0,-0.36532 -0.32901,-0.98702 -0.63066,-1.99193 -1.09594,-2.92251 -1.34276,-2.68551 -1.92098,-2.27025 -4.01845,-4.74907 -0.56721,-0.67034 -0.87788,-1.53558 -1.46126,-2.19189 -0.76042,-0.85548 -2.4189,-1.55993 -3.28782,-2.19188 -0.76916,-0.55939 -1.41274,-1.28117 -2.19188,-1.82657 -1.9976,-1.39831 -4.88091,-2.92783 -6.94096,-4.01845 -3.90483,-2.06726 -1.22985,-0.0893 -4.38377,-2.19188 -1.01319,-0.67546 -1.88989,-1.54649 -2.92251,-2.19188 -1.21835,-0.76148 -2.52353,-0.92289 -3.65313,-1.82657 -3.37564,-2.70051 -6.78805,-5.39018 -10.22878,-8.0369 -0.3565,-0.27422 -1.61274,-1.03359 -1.82657,-1.46125 -0.0545,-0.10892 0.0861,-0.27921 0,-0.36532 -0.19254,-0.19253 -0.53809,-0.17277 -0.73063,-0.36531 -0.0793,-0.0793 -0.29409,-0.69501 -0.36531,-0.73063 -0.21783,-0.10891 -0.49958,0.077 -0.73063,0 -1.214188,-0.40473 -0.854964,-2.07139 -1.826569,-2.55719 -0.586528,-0.29327 -1.217711,-0.48709 -1.826567,-0.73063 z"
       id="path12" />
    <path
       style="fill:none;fill-opacity:0.319355;stroke:#000000;stroke-width:0.264583"
       d="m 138.08856,124.93727 c 3.90451,-9.76129 -1.23314,3.37211 2.92251,-8.40222 0.27187,-0.77029 0.83762,-1.41693 1.09594,-2.19188 0.13884,-0.41652 0.37837,-1.10899 0.73063,-1.46125 0.17221,-0.17221 0.49958,0.077 0.73062,0 0.56783,-0.18928 1.24209,-0.61373 1.82657,-0.73063 1.33963,-0.26793 3.00213,0 4.38377,0 2.1497,0 4.18939,0.28757 6.21033,1.09594 0.85434,0.34174 1.7568,1.19446 2.55719,1.46126 0.23105,0.077 0.49959,-0.077 0.73063,0 0.004,0.002 2.43762,1.6472 2.5572,1.82656 0.57927,0.86891 0.78836,1.99978 1.09594,2.92251 0.30106,0.9032 0.75309,2.06539 1.09594,2.92251 0.0639,0.15989 0.31085,0.20194 0.36531,0.36531 0.36531,1.09595 -0.18266,0.36532 0,1.09595 1.40939,5.63755 -0.63364,11.32887 -3.65313,16.0738 -0.18492,0.29057 -0.53958,0.44405 -0.73063,0.73062 -0.30208,0.45312 -0.382,1.0429 -0.73063,1.46126 -0.77956,0.93547 -1.9613,1.44428 -2.92251,2.19188 -6.02247,4.68415 -13.37065,5.77204 -20.09225,9.13284 -3.60083,1.80042 -6.47119,4.34642 -9.49815,6.94096 -0.95991,0.82278 -1.50136,2.15178 -1.82657,1.82657 -0.0861,-0.0861 0,-0.24354 0,-0.36531 0,-1.09594 0,-2.19189 0,-3.28783 0,-4.15258 0.51087,-8.69712 -0.36532,-12.78598 -0.16137,-0.75305 -0.54383,-1.44472 -0.73062,-2.19188 -0.10259,-0.41033 -0.52586,-3.47239 -0.73063,-4.01845 -0.83579,-2.22878 -2.60261,-3.74397 -3.65314,-5.84501 -0.41474,-0.82948 -0.6812,-1.72772 -1.09594,-2.5572 -1.17365,-2.3473 -3.22102,-4.25017 -4.38376,-6.57565 -0.26883,-0.53766 -0.36505,-2.00881 -0.73063,-2.55719 -0.19105,-0.28658 -0.53958,-0.44405 -0.73063,-0.73063 -0.55388,-0.83081 0.24682,-3.67277 0.36532,-4.38376 0.04,-0.24023 -0.0904,-0.50451 0,-0.73063 0.5976,-1.49401 0.91391,-0.8229 1.82657,-2.19188 0.2136,-0.3204 0.15171,-0.77554 0.36531,-1.09594 0.66868,-1.00302 1.50342,-1.97177 2.55719,-2.5572 1.3807,-0.76705 2.94883,-0.44364 4.38377,-0.73062 2.90631,-0.58127 6.09456,-1.23701 9.13284,-0.73063 1.26747,0.21124 2.51599,1.44752 3.65314,1.82656 0.36822,0.12275 0.8604,0.12978 1.09594,0.36532 0.70034,0.70034 0.11269,2.89526 0.36531,3.65314 1.09763,3.29287 1.24568,6.74347 1.82657,10.22878 z"
       id="path13" />
    <path
       style="fill:none;fill-opacity:0.319355;stroke:#000000;stroke-width:0.264583"
       d="m 71.966787,50.413284 c -0.07119,-4.016213 1.315927,-7.873904 3.287824,-11.324724 0.217832,-0.381204 0.557676,-0.692389 0.730628,-1.095942 1.002327,-2.33876 0.903312,-3.159402 3.287824,-4.749077 0.3204,-0.213601 0.75152,-0.193101 1.095939,-0.365313 1.656553,-0.828276 -1.851851,0.560612 1.461256,-1.095941 1.721162,-0.860581 3.661095,-0.732219 5.479704,-1.095941 1.138822,-0.227764 3.364923,-1.018839 4.383764,0 0.192538,0.192537 0.172776,0.538091 0.365313,0.730628 0.08611,0.08611 0.27921,-0.08611 0.365313,0 0.960326,0.960326 2.041202,3.758253 2.191882,5.11439 0.152781,1.375035 0,2.990009 0,4.383765 0,2.368479 0.462286,5.360157 0,7.671586 -0.151037,0.755192 -0.543837,1.444728 -0.730625,2.191882 -0.247272,0.989084 -0.584719,2.266461 -0.730629,3.287824 -0.05166,0.36164 0.100359,0.744683 0,1.095941 -0.299214,1.047247 -1.032216,1.921417 -1.461254,2.922508 -2.924884,6.824726 -7.548303,12.732493 -13.151291,17.535057 -1.299486,1.113842 -2.317274,2.584444 -3.653137,3.653136 -1.495509,1.196406 -2.930088,2.407126 -4.383765,3.653136 -0.333353,0.285732 -0.806823,0.400207 -1.095941,0.730626 -0.578236,0.660842 -0.934392,1.489398 -1.461254,2.191883 -0.309978,0.413305 -0.932566,0.605821 -1.095941,1.095941 0,2.07011 0.243544,0.121772 -0.365313,0.730625 -0.08611,0.08611 0,0.487088 0,0.365316 0,-4.861483 -4.866865,-10.06539 -7.306273,-14.247233 -0.82319,-1.411184 -1.398471,-2.955626 -2.191882,-4.383765 -0.931156,-1.676082 -2.427523,-3.028479 -3.287824,-4.749077 -0.756449,-1.512901 -1.684062,-4.125524 -2.191879,-5.479704 -0.311275,-0.830064 -0.363789,-1.75015 -0.730629,-2.557195 -0.251947,-0.554284 -0.848661,-0.904875 -1.095941,-1.461254 -0.59913,-1.348041 -0.554797,-2.977115 -0.730628,-4.383765 -0.453753,-3.63003 -0.343713,0.96823 -0.730626,-3.287823 -0.185984,-2.045822 -0.177967,-4.529024 0,-6.575645 0.265615,-3.054593 0.305917,-6.170247 1.095941,-9.132842 0.605467,-2.270498 1.09519,-2.190004 1.826567,-4.01845 0.3864,-0.965999 0.360259,-2.186825 1.095941,-2.922509 0.08611,-0.0861 0.263994,0.06755 0.365313,0 0.286578,-0.19105 0.410842,-0.602712 0.730628,-0.730627 1.575787,-0.630315 8.97118,0.765718 10.594097,1.461254 0.316571,0.135674 0.422569,0.576598 0.730626,0.730628 0.217831,0.108915 0.504504,-0.09045 0.730628,0 0.407649,0.16306 0.688292,0.567566 1.095941,0.730626 0.226124,0.09045 0.512797,-0.108916 0.730628,0 0.108914,0.05446 -0.08611,0.27921 0,0.365316 0.06731,0.06731 1.028626,0.298 1.095939,0.365312 0.172212,0.17221 -0.07701,0.499584 0,0.730629 0.258318,0.774946 0.809122,1.427025 1.095941,2.19188 0.424834,1.132887 0.363376,2.186066 0.730629,3.287823 0.208875,0.626629 -0.292376,1.60713 0,2.191882 1.108122,2.216248 1.461254,5.971612 1.461254,8.767527"
       id="path14" />
    <path
       style="fill:none;fill-opacity:0.319355;stroke:#000000;stroke-width:0.264583"
       d="m 70.870849,246.95203 c 1.838608,-4.28911 1.216771,-9.456 3.653136,-13.51661 0.366393,-0.61066 0.595525,-1.69147 1.095942,-2.19188 2.282338,-2.28234 8.159548,-2.22655 10.959409,-1.82657 0.434639,0.0621 0.68829,0.56757 1.095938,0.73063 0.678371,0.27135 1.468599,-0.10333 2.191883,0 0.998503,0.14264 7.442255,3.19447 7.671588,3.65313 0.773507,1.54702 0.613363,10.43626 0.365313,12.42067 -0.109958,0.87966 -0.650367,1.67433 -0.730628,2.5572 -0.132295,1.45525 0.161369,2.93144 0,4.38376 -0.215173,1.93656 -2.115355,7.81474 -3.653137,9.13284 -1.862153,1.59613 -3.861549,2.04815 -5.845019,3.28783 -0.516308,0.32269 -0.932619,0.79386 -1.461254,1.09593 -3.816111,2.18065 -8.50906,2.79329 -12.420663,4.74909 -1.027507,0.51374 -1.930212,1.24772 -2.922508,1.82655 -0.470395,0.2744 -1.025594,0.40389 -1.461257,0.73065 -0.551071,0.4133 -0.942848,1.00763 -1.461254,1.46124 -1.293953,1.1322 -1.998887,1.26825 -3.287823,2.55719 -0.631788,0.6318 -2.706828,5.1144 -3.287821,5.1144 -0.121772,0 0.01722,-0.24477 0,-0.36531 -0.104752,-0.73327 -0.303803,-1.45375 -0.365316,-2.19189 -0.220948,-2.65139 -0.515559,-5.05986 -1.095938,-7.67159 -0.269391,-1.21224 -0.306242,-2.48608 -0.730629,-3.65313 -0.765072,-2.10394 -1.783252,-4.10964 -2.557195,-6.21033 -0.359677,-0.97627 -0.606335,-2.0045 -1.095941,-2.92251 -0.492948,-0.92428 -1.24551,-1.68561 -1.82657,-2.5572 -1.493972,-2.24096 -2.356794,-3.82233 -3.653136,-6.21033 -2.234999,-4.1171 -4.835816,-8.07109 -6.575645,-12.42067 -0.792302,-1.98075 -1.152064,-4.18682 -1.826569,-6.21033 -0.630508,-1.89152 -0.224301,0.84608 -0.730626,-2.19188 -0.221956,-1.33174 0,-3.0692 0,-4.38376 0,-3.51642 -0.0888,-7.21748 2.557195,-9.86347 0.970032,-0.97003 6.981357,-0.87271 8.402214,-0.73063 1.569964,0.157 2.200177,0.49054 3.653137,1.09594 0.852397,0.36532 1.704798,0.73063 2.557195,1.09594 0.487085,0.12178 0.991148,0.18903 1.461254,0.36532 1.407253,0.52772 1.892739,1.12902 3.287824,1.82657 1.298897,0.64945 2.784356,1.00384 4.018449,1.82656 0.429863,0.28658 0.666078,0.80937 1.095941,1.09595 0.725252,0.4835 0.934559,0.21811 1.461254,1.09594 0.19812,0.3302 0.193104,0.75152 0.365316,1.09594 0.857676,1.71535 0.549153,0.4596 1.095941,1.82657 1.834713,4.58678 1.461254,9.4162 1.461254,14.24723 0,1.19476 0.07781,5.05603 0,5.11439 -0.435663,0.32674 -0.974169,0.48709 -1.461254,0.73063 z"
       id="path15" />
    <path
       style="fill:none;fill-opacity:0.319355;stroke:#000000;stroke-width:0.264583"
       d="m 168.04428,174.98524 c 0.48708,-0.12177 1.01218,-0.14078 1.46125,-0.36532 0.46209,-0.23104 0.73063,-0.73062 1.09594,-1.09594 0.73063,-0.73062 1.61874,-1.33215 2.19189,-2.19188 1.76738,-2.65108 2.97974,-5.52877 5.4797,-7.67159 1.1318,-0.97011 5.0328,-2.9285 6.21033,-3.65313 0.51854,-0.3191 0.90163,-0.8561 1.46126,-1.09594 0.23973,-0.10274 5.07782,-0.86459 5.4797,-0.73063 1.78661,0.59554 2.7966,3.82959 3.65314,5.11439 0.19105,0.28658 0.5766,0.42257 0.73063,0.73063 0.22453,0.44907 0.18902,0.99114 0.36531,1.46125 1.1162,2.97653 2.76001,5.96597 3.28782,9.13284 0.43806,2.62836 0,5.73869 0,8.40222 0,1.96577 0.31935,4.3275 -0.36531,6.21033 -0.27916,0.76768 -0.81679,1.4242 -1.09594,2.19188 -1.06894,2.93958 0.51643,0.7937 -1.09594,4.01845 -2.35496,4.70991 -7.4587,9.41628 -12.42067,11.32473 -0.82741,0.31823 -1.75015,0.36378 -2.55719,0.73062 -0.55428,0.25195 -0.90488,0.84866 -1.46126,1.09594 -0.5674,0.25218 -1.24519,0.1473 -1.82656,0.36532 -0.4111,0.15416 -0.73063,0.48708 -1.09595,0.73062 -0.48708,0.24355 -0.94462,0.55842 -1.46125,0.73063 -0.23104,0.077 -0.5128,-0.10891 -0.73063,0 -0.30806,0.15403 -0.42257,0.5766 -0.73063,0.73063 -0.55536,0.27768 -1.2712,0.0876 -1.82656,0.36531 -3.19183,1.59591 -4.97638,4.72472 -6.94096,7.67159 -0.81504,1.22256 -1.0317,1.58974 -1.09595,1.46125 -0.30629,-0.61259 0.33237,-2.09587 0.36532,-2.55719 0.0868,-1.21462 0,-2.43543 0,-3.65314 0,-4.87085 0,-9.7417 0,-14.61254 0,-1.82657 0.14375,-3.65881 0,-5.47971 -0.74775,-9.47147 -0.59511,-6.03872 -2.5572,-13.15129 -0.53406,-1.93599 -0.80431,-3.9472 -1.46125,-5.84502 -0.44534,-1.28654 -1.27363,-2.40903 -1.82657,-3.65313 -0.42255,-0.95075 -0.67892,-1.96933 -1.09594,-2.92251 -0.48708,-0.97418 -0.97417,-1.94834 -1.46125,-2.92251 -0.24355,-0.12178 -0.57959,-0.13876 -0.73063,-0.36532 -0.1351,-0.20264 0.077,-0.49958 0,-0.73063 -0.0545,-0.16337 -0.31086,-0.20194 -0.36531,-0.36531 -0.26664,-0.7999 -0.0232,-4.64818 0.36531,-5.11439 0.38978,-0.46774 0.92517,-0.80728 1.46125,-1.09594 2.85863,-1.53926 10.56873,-5.24462 14.24724,-4.01845 0.32674,0.10891 0.42256,0.5766 0.73062,0.73063 0.38967,0.19483 0.48831,-0.36165 0.73063,0.36531 0.077,0.23104 -0.0591,0.49436 0,0.73063 0.28109,1.12436 0.92381,2.08293 1.09594,3.28782 0.10937,0.76556 0.28305,10.55785 0,11.69004 -0.51952,2.07806 -2.0035,4.07742 -4.01845,4.74907 -0.73063,0.24355 -1.47682,-0.4446 -2.19188,-0.73062 z"
       id="path16" />
  </g>
</svg>
